<svg width="1212" height="283" viewBox="0 0 1212 283" version="1.1" xmlns="http://www.w3.org/2000/svg"><title>weareva-white</title><g id="Page-1" stroke="none" stroke-width="1" fill="none" fill-rule="evenodd"><g id="VA-BrandMark-BlackRGB" transform="translate(-103 -213)" fill="#FFF"><g id="weareva-white" transform="translate(103 213)"><path d="M330.66.862L223.5 280.492h85.896s-57.78-1.101-32.302-70.788l69.499-186.315 69.785 185.507s27.53 71.596 112.833 71.596L419.269.862H330.66" id="Fill-1"/><path d="M113.199 72.442S85.67.855.374.855l109.907 279.623h88.616L306.085.855h-85.903s57.78 1.108 32.295 70.788l-69.506 186.306c0-.007-69.772-185.507-69.772-185.507" id="Fill-2"/><path d="M718.604.773l.467 31.552h-11.254c0-1.974.117-3.831 0-5.684-.577-9.398-3.943-13.342-8.12-14.848-2.205-.811-4.637-.811-9.509-.811v53.937c0 3.014-.123 6.381 6.259 6.381h2.79c1.854-.117 3.593 0 5.454 0v10.555h-49.19V71.3c2.789-.117 5.564-.117 8.237-.117 1.738 0 3.827-.116 4.871-1.393 1.388-1.623 1.271-4.291 1.271-6.377l-.11-52.431c-4.527-.233-8.705-.233-12.524 2.668-4.184 3.246-5.112 8.467-5.112 18.791h-11.246l.467-31.668h77.249" id="Fill-3"/><path d="M738.795 17.476c0-.347.117-1.739-.233-2.901-.811-3.71-4.638-3.363-5.799-3.363-2.432 0-4.644 0-6.842-.117V.89h45.117l-.111 10.205c-1.971 0-4.177 0-6.382.117-4.404.231-5.798 1.393-5.798 8.818v14.381h33.176V19.914c0-.348.694-6.148-2.205-8.006-1.395-.813-3.133-.696-6.843-.813-1.161 0-2.206 0-3.366-.113V.89h45.467v10.092c-1.965.113-4.054.113-6.025.113-.585 0-4.177-.346-5.916 1.857-1.161 1.392-1.044 2.668-.927 4.408v46.633s-.117 2.317.116 3.71c.578 3.364 2.776 3.712 5.799 3.712h6.726v10.673h-45.357V71.415c2.205 0 4.41 0 6.732-.115 5.566-.233 5.799-1.974 5.916-10.438V45.433h-33.293v17.863c-.234 4.987.577 6.961 2.899 7.656 1.505.463 5.221.463 9.392.463v10.556h-45.117V71.533c2.081 0 4.17 0 6.375-.118 3.133 0 4.294-.348 5.338-1.505 1.278-1.278 1.278-3.135 1.161-5.106V17.476" id="Fill-4"/><path d="M838.091 71.415c1.862-.115 2.439-.115 3.366-.348 4.178-.927 3.484-5.801 3.484-6.727V17.243c.116-2.434-.117-3.477-.811-4.407-1.161-1.507-3.133-1.741-5.221-1.741-2.323 0-4.638 0-6.85-.113V.773h83.061v31.552h-11.37c0-1.74-.12-3.363-.23-4.988-.35-6.147-1.51-13.224-8.007-15.312-2.666-.813-6.61-.93-13.109-1.043h-16.585v23.312c3.133 0 6.376.117 9.509-.113 6.609-.465 6.959-3.479 6.849-13.804h10.787v38.742l-10.677-.114-.35-5.917c-.11-2.204-.11-4.175-1.271-5.798-.928-1.276-2.315-1.857-3.944-2.091-2.205-.232-6.149-.232-11.019-.115v26.099h17.512c4.067 0 8.814-.116 12.648-1.857 7.537-3.71 7.887-15.195 8.007-22.617h11.71l-.93 35.262h-82.591V71.415h6.032" id="Fill-5"/><path d="M684.617 100.197v10.326c-1.972.115-4.061.115-6.032.115-2.666 0-5.105-.115-4.988 3.015 0 1.046.233 1.973 1.044 3.947 1.395 3.711 2.789 7.304 4.061 10.903 1.387 3.827 2.665 7.773 4.06 11.597a386.018 386.018 0 0 0 4.06 10.558 510.304 510.304 0 0 1 3.943 12.062l12.759-35.145c.927-2.554 1.971-5.104 3.016-7.772 1.161-2.901 1.511-4.177 1.511-5.8 0-.463 0-1.508-.811-2.204-1.511-1.393-5.571-1.393-10.442-1.276v-10.441h35.725v10.441c-1.622 0-3.36 0-4.988.231-3.476.465-4.521 2.552-5.915 5.917l-25.75 64.494h-18.096c-2.782-6.844-5.682-13.687-8.354-20.415-3.593-8.816-7.077-17.633-10.67-26.447-2.322-5.8-4.754-11.485-7.193-17.169-3.016-6.958-5.455-6.496-12.408-6.496v-10.441h45.468" id="Fill-6"/><path d="M743.55 144.624h21.572l-11.02-28.417-10.552 28.417zm23.778-44.889l26.794 63.914c.934 2.204 1.511 3.131 2.095 4.061 1.848 2.55 3.82 3.014 9.625 3.014v10.558h-43.035v-10.671c1.738 0 3.593 0 5.448-.117 2.672-.117 4.878-.581 4.878-3.25 0-1.97-.701-3.131-1.979-6.377-.804-1.742-1.504-3.482-2.198-5.338l-29.467.117c-2.205 5.568-3.593 9.281-3.593 11.832 0 1.276.227 2.552 2.899 3.016 1.271.23 4.294.23 7.303.23v10.441h-36.419v-10.554c1.738-.117 3.367-.117 5.105-.351 3.827-.462 5.098-1.623 7.887-7.54 1.855-4.174 3.827-8.349 5.565-12.526 1.621-4.06 3.133-8.004 4.761-12.064 2.549-6.264 5.214-12.411 7.77-18.56 2.783-6.611 5.448-13.222 8.121-19.835h18.44z" id="Fill-7"/><path d="M843.663 132.678h11.02c1.387 0 2.665 0 4.06-.115 2.899-.117 12.641-.464 12.641-11.137 0-1.045-.11-3.249-1.154-5.568-1.628-3.478-4.995-5.682-13.349-5.682-1.505 0-2.892.114-4.404.114h-8.814v22.388zm20.878-32.827c7.427.231 15.665.346 21.463 5.334 1.388 1.163 3.359 3.25 4.637 7.542.811 3.131.928 5.683.928 6.96 0 1.624-.117 4.407-1.512 7.655-3.009 7.31-10.319 9.512-17.161 11.368 3.71.813 5.564 1.39 7.076 2.204 1.271.695 4.054 2.667 5.682 6.611 1.044 2.901 1.044 5.453 1.277 11.6.117 1.625.234 3.131.234 4.641 0 2.087-.117 4.524 1.044 6.494.578.931 1.388 1.044 1.738 1.044.694 0 2.316-.693 3.017-2.667.577-1.97.693-6.147.693-11.365h9.513c.12 9.508-.23 15.308-2.67 19.022-1.74 2.667-6.492 6.149-14.963 6.149-.928 0-8.004-.117-12.298-2.554-2.081-1.159-3.243-2.784-3.826-3.48-2.55-3.712-2.9-8.815-3.134-18.443-.116-7.075-.576-9.861-3.008-12.296-3.134-3.016-7.317-2.553-11.605-2.553-2.672 0-5.337 0-8.003.118-.117 5.683-.117 11.251-.117 16.934v4.408c.233 3.83 1.855 5.568 5.915 5.683 2.439.117 4.871 0 7.31 0v10.788h-46.285v-10.554h6.383c.46 0 2.899 0 4.17-.696 2.439-1.278 2.439-5.105 2.439-7.889v-42.686c0-8.004-1.511-8.933-6.149-8.933h-6.959V99.851h54.171z" id="Fill-8"/><path d="M920.46 117.947c.12-4.407-.58-6.494-2.9-7.075-1.86-.582-5.11-.466-9.86-.466V99.851h46.28v10.555c-2.32 0-4.52-.116-6.95.117-.59 0-3.6.115-4.88 1.507-.93 1.046-1.16 3.133-1.16 6.38 0 3.827 0 7.656-.11 11.369v33.64c0 1.623 0 2.434.11 3.131.81 4.291 5.34 3.827 6.5 3.827h6.26v10.556H907.7V170.26c2.21 0 4.41.117 6.73 0 1.97 0 3.01-.23 3.71-.579 1.86-1.044 2.44-3.361 2.32-7.772v-43.962" id="Fill-9"/><path d="M977.07 152.397c.69 3.018 3.6 15.197 14.5 19.141 1.62.696 3.95 1.276 7.77 1.276.82 0 2.9 0 4.99-.347 2.9-.465 7.89-1.51 12.52-7.193 5.58-6.613 6.96-15.195 6.96-23.78 0-13.689-2.66-20.416-6.38-25.517-.93-1.278-3.36-4.411-7.3-6.268-1.51-.81-4.64-1.856-9.28-1.856-1.27 0-6.96.118-11.14 2.09-2.08 1.044-3.59 2.32-4.18 2.899-1.62 1.391-2.9 2.901-3.94 4.641-2.43 3.828-5.56 11.715-5.56 23.78 0 3.941.23 7.421 1.04 11.134zm.47-50.805c4.17-1.741 10.78-3.712 21.69-3.712 2.08 0 4.29.114 6.38.23 4.75.348 15.89 1.045 26.32 9.282a38.747 38.747 0 0 1 8.24 9.049c4.18 6.61 6.03 14.961 6.03 23.197 0 6.381-1.39 26.682-18.67 37.35-6.38 3.83-12.76 4.988-15.31 5.455-5.46 1.042-9.28 1.159-11.61 1.159-2.2 0-6.03-.234-11.24-.929-4.18-.697-15.08-2.087-23.9-11.018-4.53-4.524-11.95-14.965-11.48-32.132.35-16.588 8.12-31.437 23.55-37.931z" id="Fill-10"/><path d="M1091.22 99.735v10.325c-2.43.116-4.87.116-7.31.116-.7 0-3.13-.233-4.64 1.277-1.39 1.389-1.5 3.131-1.5 5.101v34.684c.34 7.192 1.04 10.208 2.9 12.992 1.85 2.667 6.49 6.961 15.08 6.961 2.08 0 9.74-.35 14.14-5.455 3.25-3.827 3.6-8.351 3.83-13.222v-36.073c0-1.857 0-3.135-1.04-4.411-.69-.811-1.74-1.276-1.97-1.276-1.63-.578-4.64-.578-9.05-.464V99.851h37.23v10.439c-1.85.116-3.71.116-5.68.116-2.09.117-3.02.348-3.83.696-3.01 1.393-2.32 6.381-2.32 6.962v34.102c-.12 1.973-.12 3.943-.35 5.916-.93 10.905-5.1 15.543-9.05 18.559-7.3 5.568-16.93 6.844-26.09 6.844-12.53 0-27.15-3.246-32.37-16.007-1.16-2.785-1.63-5.222-1.97-11.252v-39.092c0-.115 0-2.086-.12-3.131-.81-3.943-4.4-3.827-5.56-3.827-2.09-.116-4.06-.116-6.03-.116V99.735h45.7" id="Fill-11"/><path d="M1151.43 150.426c1.16 5.57 1.97 9.627 6.03 13.57 7.19 7.195 17.17 7.891 20.41 7.891 4.06-.117 9.17-1.046 12.3-3.714 2.67-2.437 3.02-5.334 3.02-6.611 0-.58-.12-2.09-.81-3.596-2.09-4.174-6.27-5.218-14.74-7.075-5.57-1.276-11.25-2.437-16.94-3.83-2.43-.58-11.71-2.667-16.93-9.976-3.59-4.871-3.71-11.134-3.71-13.106 0-4.756 1.04-8.931 3.47-12.877 4.65-8.004 11.96-11.367 20.66-12.644a64.3 64.3 0 0 1 9.28-.696c9.97 0 14.85 2.32 23.31 7.076l2.2-5.683h9.4v29.463h-11.13c-.35-1.74-.58-3.48-1.05-5.103-.7-2.321-1.85-6.264-6.61-9.975-2.67-2.087-7.88-5.105-16-5.105-1.05 0-7.2 0-11.26 2.437-4.06 2.319-4.99 5.915-4.99 7.885 0 .93.12 2.321 1.63 4.294 2.78 3.71 7.42 4.178 11.72 5.22 2.43.464 4.86 1.044 7.18 1.625l11.72 2.434c6.26 1.623 11.72 3.132 16.47 8.003 2.32 2.554 5.57 7.079 5.57 15.546 0 12.178-5.8 18.094-9.51 20.994-6.38 4.756-14.16 6.379-21.81 6.379-1.97 0-8.81-.114-14.96-1.74-4.06-1.159-6.62-2.317-13.23-6.958l-2.66 6.494h-9.74v-30.737l11.71.115" id="Fill-12"/><path d="M673.02 243.937h21.572l-11.02-28.419-10.552 28.419zm23.778-44.892l26.8 63.914c.921 2.205 1.505 3.132 2.082 4.06 1.855 2.555 3.827 3.016 9.632 3.016v10.56h-43.035v-10.673c1.738 0 3.593 0 5.448-.117 2.666-.117 4.871-.581 4.871-3.246 0-1.976-.694-3.133-1.972-6.383-.81-1.738-1.504-3.48-2.205-5.334l-29.46.113c-2.205 5.572-3.6 9.282-3.6 11.83 0 1.278.234 2.556 2.907 3.02 1.27.23 4.286.23 7.302.23v10.443h-36.419v-10.556c1.739-.117 3.36-.117 5.098-.348 3.834-.467 5.112-1.624 7.887-7.543 1.862-4.177 3.834-8.354 5.572-12.524 1.621-4.062 3.133-8.006 4.754-12.066 2.556-6.262 5.221-12.413 7.771-18.56 2.789-6.611 5.454-13.222 8.12-19.836h18.447z" id="Fill-13"/><path d="M773.133 231.989h11.02c1.387 0 2.665 0 4.053-.116 2.906-.117 12.648-.464 12.648-11.135 0-1.043-.117-3.248-1.161-5.567-1.628-3.482-4.987-5.685-13.335-5.685-1.512 0-2.906.116-4.411.116h-8.814v22.387zm20.878-32.827c7.427.233 15.658.35 21.456 5.336 1.395 1.161 3.367 3.248 4.644 7.538.811 3.135.928 5.685.928 6.962 0 1.623-.117 4.407-1.504 7.657-3.017 7.304-10.327 9.508-17.169 11.364 3.703.815 5.564 1.393 7.069 2.208 1.278.693 4.061 2.667 5.682 6.611 1.044 2.895 1.044 5.451 1.278 11.6.123 1.621.233 3.133.233 4.637 0 2.089-.11 4.528 1.045 6.499.584.928 1.394 1.045 1.745 1.045.693 0 2.315-.697 3.009-2.669.584-1.975.694-6.153.694-11.37h9.522c.11 9.511-.24 15.313-2.673 19.027-1.738 2.665-6.499 6.145-14.963 6.145-.927 0-8.004-.116-12.298-2.552-2.088-1.158-3.25-2.782-3.826-3.476-2.556-3.717-2.9-8.822-3.133-18.447-.117-7.077-.577-9.859-3.016-12.296-3.133-3.016-7.303-2.552-11.597-2.552-2.673 0-5.338 0-8.004.115-.117 5.685-.117 11.257-.117 16.938v4.407c.227 3.831 1.855 5.569 5.915 5.685 2.432.114 4.871 0 7.31 0v10.787h-46.285v-10.556h6.376c.467 0 2.906 0 4.184-.698 2.432-1.278 2.432-5.104 2.432-7.887v-42.686c0-8.004-1.505-8.932-6.149-8.932h-6.959v-10.44h54.171z" id="Fill-14"/><path d="M902.59 199.395l.47 31.55h-11.257c0-1.972.116-3.827 0-5.683-.584-9.397-3.944-13.339-8.121-14.849-2.206-.811-4.638-.811-9.515-.811v53.941c0 3.016-.117 6.379 6.265 6.379h2.783c1.862-.117 3.6 0 5.455 0v10.556h-49.185v-10.556c2.79-.117 5.572-.117 8.238-.117 1.738 0 3.827-.117 4.871-1.391 1.395-1.629 1.278-4.294 1.278-6.383l-.117-52.429c-4.527-.233-8.698-.233-12.531 2.668-4.171 3.248-5.098 8.468-5.098 18.792h-11.254l.461-31.667h77.257" id="Fill-15"/><path d="M922.55 217.258c.11-4.407-.59-6.498-2.9-7.075-1.86-.581-5.11-.467-9.86-.467v-10.554h46.28v10.554c-2.32 0-4.52-.114-6.96.12-.58 0-3.6.114-4.87 1.505-.93 1.042-1.16 3.133-1.16 6.38 0 3.829 0 7.657-.11 11.367v33.637c0 1.628 0 2.439.11 3.133.81 4.294 5.34 3.83 6.49 3.83h6.27v10.556h-46.05v-10.67c2.2 0 4.4.114 6.72 0 1.98 0 3.02-.233 3.72-.58 1.85-1.044 2.43-3.366 2.32-7.774v-43.962" id="Fill-16"/><path d="M973.82 249.733c1.16 5.572 1.97 9.632 6.03 13.576 7.19 7.193 17.17 7.887 20.42 7.887 4.06-.117 9.16-1.044 12.3-3.71 2.66-2.435 3.01-5.338 3.01-6.613 0-.58-.11-2.091-.81-3.596-2.09-4.177-6.27-5.221-14.73-7.077-5.57-1.278-11.25-2.435-16.94-3.826-2.43-.581-11.71-2.669-16.93-9.978-3.6-4.871-3.71-11.134-3.71-13.108 0-4.754 1.04-8.928 3.47-12.875 4.65-8.004 11.95-11.368 20.65-12.644 1.51-.231 5.1-.694 9.28-.694 9.98 0 14.85 2.32 23.32 7.074l2.2-5.683h9.39v29.463h-11.13c-.35-1.74-.57-3.48-1.05-5.105-.69-2.317-1.85-6.263-6.61-9.973-2.66-2.091-7.88-5.105-16-5.105-1.05 0-7.19 0-11.26 2.437-4.05 2.32-4.98 5.914-4.98 7.887 0 .928.11 2.319 1.62 4.291 2.79 3.713 7.43 4.177 11.72 5.221 2.44.464 4.87 1.044 7.19 1.623l11.71 2.437c6.27 1.623 11.72 3.131 16.48 8.003 2.31 2.552 5.56 7.076 5.56 15.543 0 12.181-5.8 18.096-9.51 20.996-6.38 4.754-14.15 6.382-21.81 6.382-1.97 0-8.81-.12-14.95-1.745-4.07-1.154-6.62-2.315-13.23-6.956l-2.67 6.496h-9.74v-30.737l11.71.109" id="Fill-17"/><path d="M1115.69 199.395l.47 31.55h-11.26c0-1.972.12-3.827 0-5.683-.57-9.397-3.94-13.339-8.12-14.849-2.2-.811-4.63-.811-9.51-.811v53.941c0 3.016-.12 6.379 6.26 6.379h2.79c1.86-.117 3.6 0 5.45 0v10.556h-49.18v-10.556c2.79-.117 5.56-.117 8.23-.117 1.74 0 3.83-.117 4.88-1.391 1.38-1.629 1.27-4.294 1.27-6.383l-.11-52.429c-4.53-.233-8.71-.233-12.53 2.668-4.18 3.248-5.11 8.468-5.11 18.792h-11.25l.47-31.667h77.25" id="Fill-18"/><path d="M1133.56 249.733c1.15 5.572 1.97 9.632 6.03 13.576 7.19 7.193 17.17 7.887 20.41 7.887 4.06-.117 9.17-1.044 12.3-3.71 2.67-2.435 3.02-5.338 3.02-6.613 0-.58-.11-2.091-.81-3.596-2.09-4.177-6.27-5.221-14.73-7.077-5.58-1.278-11.26-2.435-16.94-3.826-2.43-.581-11.71-2.669-16.94-9.978-3.59-4.871-3.7-11.134-3.7-13.108 0-4.754 1.04-8.928 3.47-12.875 4.65-8.004 11.95-11.368 20.65-12.644 1.51-.231 5.1-.694 9.28-.694 9.97 0 14.85 2.32 23.31 7.074l2.21-5.683h9.39v29.463h-11.13c-.35-1.74-.58-3.48-1.05-5.105-.69-2.317-1.85-6.263-6.61-9.973-2.67-2.091-7.88-5.105-16-5.105-1.05 0-7.2 0-11.26 2.437-4.05 2.32-4.99 5.914-4.99 7.887 0 .928.12 2.319 1.63 4.291 2.78 3.713 7.42 4.177 11.72 5.221 2.43.464 4.87 1.044 7.18 1.623l11.72 2.437c6.26 1.623 11.72 3.131 16.47 8.003 2.32 2.552 5.57 7.076 5.57 15.543 0 12.181-5.8 18.096-9.51 20.996-6.38 4.754-14.15 6.382-21.81 6.382-1.97 0-8.81-.12-14.96-1.745-4.06-1.154-6.61-2.315-13.23-6.956l-2.66 6.496h-9.74v-30.737l11.71.109" id="Fill-19"/><path id="Fill-20" d="M582.315 280.594h2V.773h-2z"/></g></g></g></svg>