<?xml version="1.0" encoding="UTF-8"?>
<svg width="533px" height="283px" viewBox="0 0 533 283" version="1.1" xmlns="http://www.w3.org/2000/svg" xmlns:xlink="http://www.w3.org/1999/xlink">
    <!-- Generator: Sketch 51.3 (57544) - http://www.bohemiancoding.com/sketch -->
    <title>Group</title>
    <desc>Created with Sketch.</desc>
    <defs></defs>
    <g id="Page-1" stroke="none" stroke-width="1" fill="none" fill-rule="evenodd">
        <g id="VA-Icon-BlackRGB" transform="translate(-88.000000, -213.000000)" fill="#FFFFFF">
            <g id="Group" transform="translate(88.000000, 213.000000)">
                <path d="M332.623,0.957 L224.772,282.389 L311.222,282.389 C311.222,282.389 253.07,281.281 278.711,211.145 L348.659,23.629 L418.894,210.332 C418.894,210.332 446.601,282.389 532.454,282.389 L421.804,0.957 L332.623,0.957" id="Fill-1"></path>
                <path d="M113.76,72.999 C113.76,72.999 86.053,0.95 0.207,0.95 L110.823,282.376 L200.011,282.376 L307.889,0.95 L221.433,0.95 C221.433,0.95 279.585,2.065 253.936,72.194 L183.982,259.701 C183.982,259.694 113.76,72.999 113.76,72.999" id="Fill-2"></path>
            </g>
        </g>
    </g>
</svg>