<?xml version="1.0" encoding="UTF-8"?>
<svg width="1212px" height="283px" viewBox="0 0 1212 283" version="1.1" xmlns="http://www.w3.org/2000/svg" xmlns:xlink="http://www.w3.org/1999/xlink">
    <!-- Generator: Sketch 51.3 (57544) - http://www.bohemiancoding.com/sketch -->
    <title>weareva-white</title>
    <desc>Created with Sketch.</desc>
    <defs></defs>
    <g id="Page-1" stroke="none" stroke-width="1" fill="none" fill-rule="evenodd">
        <g id="VA-BrandMark-BlackRGB" transform="translate(-103.000000, -213.000000)" fill="#FFFFFF">
            <g id="weareva-white" transform="translate(103.000000, 213.000000)">
                <path d="M330.66,0.862 L223.5,280.492 L309.396,280.492 C309.396,280.492 251.616,279.391 277.094,209.704 L346.593,23.389 L416.378,208.896 C416.378,208.896 443.908,280.492 529.211,280.492 L419.269,0.862 L330.66,0.862" id="Fill-1"></path>
                <path d="M113.199,72.442 C113.199,72.442 85.67,0.855 0.374,0.855 L110.281,280.478 L198.897,280.478 L306.085,0.855 L220.182,0.855 C220.182,0.855 277.962,1.963 252.477,71.643 L182.971,257.949 C182.971,257.942 113.199,72.442 113.199,72.442" id="Fill-2"></path>
                <path d="M718.604,0.773 L719.071,32.325 L707.817,32.325 C707.817,30.351 707.934,28.494 707.817,26.641 C707.24,17.243 703.874,13.299 699.697,11.793 C697.492,10.982 695.06,10.982 690.188,10.982 L690.188,64.919 C690.188,67.933 690.065,71.3 696.447,71.3 L699.237,71.3 C701.091,71.183 702.83,71.3 704.691,71.3 L704.691,81.855 L655.501,81.855 L655.501,71.3 C658.29,71.183 661.065,71.183 663.738,71.183 C665.476,71.183 667.565,71.067 668.609,69.79 C669.997,68.167 669.88,65.499 669.88,63.413 L669.77,10.982 C665.243,10.749 661.065,10.749 657.246,13.65 C653.062,16.896 652.134,22.117 652.134,32.441 L640.888,32.441 L641.355,0.773 L718.604,0.773" id="Fill-3"></path>
                <path d="M738.795,17.476 C738.795,17.129 738.912,15.737 738.562,14.575 C737.751,10.865 733.924,11.212 732.763,11.212 C730.331,11.212 728.119,11.212 725.921,11.095 L725.921,0.89 L771.038,0.89 L770.927,11.095 C768.956,11.095 766.75,11.095 764.545,11.212 C760.141,11.443 758.747,12.605 758.747,20.03 L758.747,34.411 L791.923,34.411 L791.923,19.914 C791.923,19.566 792.617,13.766 789.718,11.908 C788.323,11.095 786.585,11.212 782.875,11.095 C781.714,11.095 780.669,11.095 779.509,10.982 L779.509,0.89 L824.976,0.89 L824.976,10.982 C823.011,11.095 820.922,11.095 818.951,11.095 C818.366,11.095 814.774,10.749 813.035,12.952 C811.874,14.344 811.991,15.62 812.108,17.36 L812.108,63.993 C812.108,63.993 811.991,66.31 812.224,67.703 C812.802,71.067 815,71.415 818.023,71.415 L824.749,71.415 L824.749,82.088 L779.392,82.088 L779.392,71.415 C781.597,71.415 783.802,71.415 786.124,71.3 C791.69,71.067 791.923,69.326 792.04,60.862 L792.04,45.433 L758.747,45.433 L758.747,63.296 C758.513,68.283 759.324,70.257 761.646,70.952 C763.151,71.415 766.867,71.415 771.038,71.415 L771.038,81.971 L725.921,81.971 L725.921,71.533 C728.002,71.533 730.091,71.533 732.296,71.415 C735.429,71.415 736.59,71.067 737.634,69.91 C738.912,68.632 738.912,66.775 738.795,64.804 L738.795,17.476" id="Fill-4"></path>
                <path d="M838.091,71.415 C839.953,71.3 840.53,71.3 841.457,71.067 C845.635,70.14 844.941,65.266 844.941,64.34 L844.941,17.243 C845.057,14.809 844.824,13.766 844.13,12.836 C842.969,11.329 840.997,11.095 838.909,11.095 C836.586,11.095 834.271,11.095 832.059,10.982 L832.059,0.773 L915.12,0.773 L915.12,32.325 L903.75,32.325 C903.75,30.585 903.63,28.962 903.52,27.337 C903.17,21.19 902.01,14.113 895.513,12.025 C892.847,11.212 888.903,11.095 882.404,10.982 L865.819,10.982 L865.819,34.294 C868.952,34.294 872.195,34.411 875.328,34.181 C881.937,33.716 882.287,30.702 882.177,20.377 L892.964,20.377 L892.964,59.119 L882.287,59.005 L881.937,53.088 C881.827,50.884 881.827,48.913 880.666,47.29 C879.738,46.014 878.351,45.433 876.722,45.199 C874.517,44.967 870.573,44.967 865.703,45.084 L865.703,71.183 L883.215,71.183 C887.282,71.183 892.029,71.067 895.863,69.326 C903.4,65.616 903.75,54.131 903.87,46.709 L915.58,46.709 L914.65,81.971 L832.059,81.971 L832.059,71.415 L838.091,71.415" id="Fill-5"></path>
                <path d="M684.617,100.197 L684.617,110.523 C682.645,110.638 680.556,110.638 678.585,110.638 C675.919,110.638 673.48,110.523 673.597,113.653 C673.597,114.699 673.83,115.626 674.641,117.6 C676.036,121.311 677.43,124.904 678.702,128.503 C680.089,132.33 681.367,136.276 682.762,140.1 C684.039,143.581 685.427,147.178 686.822,150.658 C688.21,154.718 689.488,158.661 690.765,162.72 L703.524,127.575 C704.451,125.021 705.495,122.471 706.54,119.803 C707.701,116.902 708.051,115.626 708.051,114.003 C708.051,113.54 708.051,112.495 707.24,111.799 C705.729,110.406 701.669,110.406 696.798,110.523 L696.798,100.082 L732.523,100.082 L732.523,110.523 C730.901,110.523 729.163,110.523 727.535,110.754 C724.059,111.219 723.014,113.306 721.62,116.671 L695.87,181.165 L677.774,181.165 C674.992,174.321 672.092,167.478 669.42,160.75 C665.827,151.934 662.343,143.117 658.75,134.303 C656.428,128.503 653.996,122.818 651.557,117.134 C648.541,110.176 646.102,110.638 639.149,110.638 L639.149,100.197 L684.617,100.197" id="Fill-6"></path>
                <path d="M743.55,144.624 L765.122,144.624 L754.102,116.207 L743.55,144.624 Z M767.328,99.735 L794.122,163.649 C795.056,165.853 795.633,166.78 796.217,167.71 C798.065,170.26 800.037,170.724 805.842,170.724 L805.842,181.282 L762.807,181.282 L762.807,170.611 C764.545,170.611 766.4,170.611 768.255,170.494 C770.927,170.377 773.133,169.913 773.133,167.244 C773.133,165.274 772.432,164.113 771.154,160.867 C770.35,159.125 769.65,157.385 768.956,155.529 L739.489,155.646 C737.284,161.214 735.896,164.927 735.896,167.478 C735.896,168.754 736.123,170.03 738.795,170.494 C740.066,170.724 743.089,170.724 746.098,170.724 L746.098,181.165 L709.679,181.165 L709.679,170.611 C711.417,170.494 713.046,170.494 714.784,170.26 C718.611,169.798 719.882,168.637 722.671,162.72 C724.526,158.546 726.498,154.371 728.236,150.194 C729.857,146.134 731.369,142.19 732.997,138.13 C735.546,131.866 738.211,125.719 740.767,119.57 C743.55,112.959 746.215,106.348 748.888,99.735 L767.328,99.735 Z" id="Fill-7"></path>
                <path d="M843.663,132.678 L854.683,132.678 C856.07,132.678 857.348,132.678 858.743,132.563 C861.642,132.446 871.384,132.099 871.384,121.426 C871.384,120.381 871.274,118.177 870.23,115.858 C868.602,112.38 865.235,110.176 856.881,110.176 C855.376,110.176 853.989,110.29 852.477,110.29 L843.663,110.29 L843.663,132.678 Z M864.541,99.851 C871.968,100.082 880.206,100.197 886.004,105.185 C887.392,106.348 889.363,108.435 890.641,112.727 C891.452,115.858 891.569,118.41 891.569,119.687 C891.569,121.311 891.452,124.094 890.057,127.342 C887.048,134.652 879.738,136.854 872.896,138.71 C876.606,139.523 878.46,140.1 879.972,140.914 C881.243,141.609 884.026,143.581 885.654,147.525 C886.698,150.426 886.698,152.978 886.931,159.125 C887.048,160.75 887.165,162.256 887.165,163.766 C887.165,165.853 887.048,168.29 888.209,170.26 C888.787,171.191 889.597,171.304 889.947,171.304 C890.641,171.304 892.263,170.611 892.964,168.637 C893.541,166.667 893.657,162.49 893.657,157.272 L903.17,157.272 C903.29,166.78 902.94,172.58 900.5,176.294 C898.76,178.961 894.008,182.443 885.537,182.443 C884.609,182.443 877.533,182.326 873.239,179.889 C871.158,178.73 869.996,177.105 869.413,176.409 C866.863,172.697 866.513,167.594 866.279,157.966 C866.163,150.891 865.703,148.105 863.271,145.67 C860.137,142.654 855.954,143.117 851.666,143.117 C848.994,143.117 846.329,143.117 843.663,143.235 C843.546,148.918 843.546,154.486 843.546,160.169 L843.546,164.577 C843.779,168.407 845.401,170.145 849.461,170.26 C851.9,170.377 854.332,170.26 856.771,170.26 L856.771,181.048 L810.486,181.048 L810.486,170.494 L816.869,170.494 C817.329,170.494 819.768,170.494 821.039,169.798 C823.478,168.52 823.478,164.693 823.478,161.909 L823.478,119.223 C823.478,111.219 821.967,110.29 817.329,110.29 L810.37,110.29 L810.37,99.851 L864.541,99.851 Z" id="Fill-8"></path>
                <path d="M920.46,117.947 C920.58,113.54 919.88,111.453 917.56,110.872 C915.7,110.29 912.45,110.406 907.7,110.406 L907.7,99.851 L953.98,99.851 L953.98,110.406 C951.66,110.406 949.46,110.29 947.03,110.523 C946.44,110.523 943.43,110.638 942.15,112.03 C941.22,113.076 940.99,115.163 940.99,118.41 C940.99,122.237 940.99,126.066 940.88,129.779 L940.88,163.419 C940.88,165.042 940.88,165.853 940.99,166.55 C941.8,170.841 946.33,170.377 947.49,170.377 L953.75,170.377 L953.75,180.933 L907.7,180.933 L907.7,170.26 C909.91,170.26 912.11,170.377 914.43,170.26 C916.4,170.26 917.44,170.03 918.14,169.681 C920,168.637 920.58,166.32 920.46,161.909 L920.46,117.947" id="Fill-9"></path>
                <path d="M977.07,152.397 C977.76,155.415 980.67,167.594 991.57,171.538 C993.19,172.234 995.52,172.814 999.34,172.814 C1000.16,172.814 1002.24,172.814 1004.33,172.467 C1007.23,172.002 1012.22,170.957 1016.85,165.274 C1022.43,158.661 1023.81,150.079 1023.81,141.494 C1023.81,127.805 1021.15,121.078 1017.43,115.977 C1016.5,114.699 1014.07,111.566 1010.13,109.709 C1008.62,108.899 1005.49,107.853 1000.85,107.853 C999.58,107.853 993.89,107.971 989.71,109.943 C987.63,110.987 986.12,112.263 985.53,112.842 C983.91,114.233 982.63,115.743 981.59,117.483 C979.16,121.311 976.03,129.198 976.03,141.263 C976.03,145.204 976.26,148.684 977.07,152.397 Z M977.54,101.592 C981.71,99.851 988.32,97.88 999.23,97.88 C1001.31,97.88 1003.52,97.994 1005.61,98.11 C1010.36,98.458 1021.5,99.155 1031.93,107.392 C1033.67,108.782 1037.04,111.683 1040.17,116.441 C1044.35,123.051 1046.2,131.402 1046.2,139.638 C1046.2,146.019 1044.81,166.32 1027.53,176.988 C1021.15,180.818 1014.77,181.976 1012.22,182.443 C1006.76,183.485 1002.94,183.602 1000.61,183.602 C998.41,183.602 994.58,183.368 989.37,182.673 C985.19,181.976 974.29,180.586 965.47,171.655 C960.94,167.131 953.52,156.69 953.99,139.523 C954.34,122.935 962.11,108.086 977.54,101.592 Z" id="Fill-10"></path>
                <path d="M1091.22,99.735 L1091.22,110.06 C1088.79,110.176 1086.35,110.176 1083.91,110.176 C1083.21,110.176 1080.78,109.943 1079.27,111.453 C1077.88,112.842 1077.77,114.584 1077.77,116.554 L1077.77,151.238 C1078.11,158.43 1078.81,161.446 1080.67,164.23 C1082.52,166.897 1087.16,171.191 1095.75,171.191 C1097.83,171.191 1105.49,170.841 1109.89,165.736 C1113.14,161.909 1113.49,157.385 1113.72,152.514 L1113.72,116.441 C1113.72,114.584 1113.72,113.306 1112.68,112.03 C1111.99,111.219 1110.94,110.754 1110.71,110.754 C1109.08,110.176 1106.07,110.176 1101.66,110.29 L1101.66,99.851 L1138.89,99.851 L1138.89,110.29 C1137.04,110.406 1135.18,110.406 1133.21,110.406 C1131.12,110.523 1130.19,110.754 1129.38,111.102 C1126.37,112.495 1127.06,117.483 1127.06,118.064 L1127.06,152.166 C1126.94,154.139 1126.94,156.109 1126.71,158.082 C1125.78,168.987 1121.61,173.625 1117.66,176.641 C1110.36,182.209 1100.73,183.485 1091.57,183.485 C1079.04,183.485 1064.42,180.239 1059.2,167.478 C1058.04,164.693 1057.57,162.256 1057.23,156.226 L1057.23,117.134 C1057.23,117.019 1057.23,115.048 1057.11,114.003 C1056.3,110.06 1052.71,110.176 1051.55,110.176 C1049.46,110.06 1047.49,110.06 1045.52,110.06 L1045.52,99.735 L1091.22,99.735" id="Fill-11"></path>
                <path d="M1151.43,150.426 C1152.59,155.996 1153.4,160.053 1157.46,163.996 C1164.65,171.191 1174.63,171.887 1177.87,171.887 C1181.93,171.77 1187.04,170.841 1190.17,168.173 C1192.84,165.736 1193.19,162.839 1193.19,161.562 C1193.19,160.982 1193.07,159.472 1192.38,157.966 C1190.29,153.792 1186.11,152.748 1177.64,150.891 C1172.07,149.615 1166.39,148.454 1160.7,147.061 C1158.27,146.481 1148.99,144.394 1143.77,137.085 C1140.18,132.214 1140.06,125.951 1140.06,123.979 C1140.06,119.223 1141.1,115.048 1143.53,111.102 C1148.18,103.098 1155.49,99.735 1164.19,98.458 C1165.7,98.227 1169.3,97.762 1173.47,97.762 C1183.44,97.762 1188.32,100.082 1196.78,104.838 L1198.98,99.155 L1208.38,99.155 L1208.38,128.618 L1197.25,128.618 C1196.9,126.878 1196.67,125.138 1196.2,123.515 C1195.5,121.194 1194.35,117.251 1189.59,113.54 C1186.92,111.453 1181.71,108.435 1173.59,108.435 C1172.54,108.435 1166.39,108.435 1162.33,110.872 C1158.27,113.191 1157.34,116.787 1157.34,118.757 C1157.34,119.687 1157.46,121.078 1158.97,123.051 C1161.75,126.761 1166.39,127.229 1170.69,128.271 C1173.12,128.735 1175.55,129.315 1177.87,129.896 L1189.59,132.33 C1195.85,133.953 1201.31,135.462 1206.06,140.333 C1208.38,142.887 1211.63,147.412 1211.63,155.879 C1211.63,168.057 1205.83,173.973 1202.12,176.873 C1195.74,181.629 1187.96,183.252 1180.31,183.252 C1178.34,183.252 1171.5,183.138 1165.35,181.512 C1161.29,180.353 1158.73,179.195 1152.12,174.554 L1149.46,181.048 L1139.72,181.048 L1139.72,150.311 L1151.43,150.426" id="Fill-12"></path>
                <path d="M673.02,243.937 L694.592,243.937 L683.572,215.518 L673.02,243.937 Z M696.798,199.045 L723.598,262.959 C724.519,265.164 725.103,266.091 725.68,267.019 C727.535,269.574 729.507,270.035 735.312,270.035 L735.312,280.595 L692.277,280.595 L692.277,269.922 C694.015,269.922 695.87,269.922 697.725,269.805 C700.391,269.688 702.596,269.224 702.596,266.559 C702.596,264.583 701.902,263.426 700.624,260.176 C699.814,258.438 699.12,256.696 698.419,254.842 L668.959,254.955 C666.754,260.527 665.359,264.237 665.359,266.785 C665.359,268.063 665.593,269.341 668.266,269.805 C669.536,270.035 672.552,270.035 675.568,270.035 L675.568,280.478 L639.149,280.478 L639.149,269.922 C640.888,269.805 642.509,269.805 644.247,269.574 C648.081,269.107 649.359,267.95 652.134,262.031 C653.996,257.854 655.968,253.677 657.706,249.507 C659.327,245.445 660.839,241.501 662.46,237.441 C665.016,231.179 667.681,225.028 670.231,218.881 C673.02,212.27 675.685,205.659 678.351,199.045 L696.798,199.045 Z" id="Fill-13"></path>
                <path d="M773.133,231.989 L784.153,231.989 C785.54,231.989 786.818,231.989 788.206,231.873 C791.112,231.756 800.854,231.409 800.854,220.738 C800.854,219.695 800.737,217.49 799.693,215.171 C798.065,211.689 794.706,209.486 786.358,209.486 C784.846,209.486 783.452,209.602 781.947,209.602 L773.133,209.602 L773.133,231.989 Z M794.011,199.162 C801.438,199.395 809.669,199.512 815.467,204.498 C816.862,205.659 818.834,207.746 820.111,212.036 C820.922,215.171 821.039,217.721 821.039,218.998 C821.039,220.621 820.922,223.405 819.535,226.655 C816.518,233.959 809.208,236.163 802.366,238.019 C806.069,238.834 807.93,239.412 809.435,240.227 C810.713,240.92 813.496,242.894 815.117,246.838 C816.161,249.733 816.161,252.289 816.395,258.438 C816.518,260.059 816.628,261.571 816.628,263.075 C816.628,265.164 816.518,267.603 817.673,269.574 C818.257,270.502 819.067,270.619 819.418,270.619 C820.111,270.619 821.733,269.922 822.427,267.95 C823.011,265.975 823.121,261.797 823.121,256.58 L832.643,256.58 C832.753,266.091 832.403,271.893 829.97,275.607 C828.232,278.272 823.471,281.752 815.007,281.752 C814.08,281.752 807.003,281.636 802.709,279.2 C800.621,278.042 799.459,276.418 798.883,275.724 C796.327,272.007 795.983,266.902 795.75,257.277 C795.633,250.2 795.173,247.418 792.734,244.981 C789.601,241.965 785.431,242.429 781.137,242.429 C778.464,242.429 775.799,242.429 773.133,242.544 C773.016,248.229 773.016,253.801 773.016,259.482 L773.016,263.889 C773.243,267.72 774.871,269.458 778.931,269.574 C781.363,269.688 783.802,269.574 786.241,269.574 L786.241,280.361 L739.956,280.361 L739.956,269.805 L746.332,269.805 C746.799,269.805 749.238,269.805 750.516,269.107 C752.948,267.829 752.948,264.003 752.948,261.22 L752.948,218.534 C752.948,210.53 751.443,209.602 746.799,209.602 L739.84,209.602 L739.84,199.162 L794.011,199.162 Z" id="Fill-14"></path>
                <path d="M902.59,199.395 L903.06,230.945 L891.803,230.945 C891.803,228.973 891.919,227.118 891.803,225.262 C891.219,215.865 887.859,211.923 883.682,210.413 C881.476,209.602 879.044,209.602 874.167,209.602 L874.167,263.543 C874.167,266.559 874.05,269.922 880.432,269.922 L883.215,269.922 C885.077,269.805 886.815,269.922 888.67,269.922 L888.67,280.478 L839.485,280.478 L839.485,269.922 C842.275,269.805 845.057,269.805 847.723,269.805 C849.461,269.805 851.55,269.688 852.594,268.414 C853.989,266.785 853.872,264.12 853.872,262.031 L853.755,209.602 C849.228,209.369 845.057,209.369 841.224,212.27 C837.053,215.518 836.126,220.738 836.126,231.062 L824.872,231.062 L825.333,199.395 L902.59,199.395" id="Fill-15"></path>
                <path d="M922.55,217.258 C922.66,212.851 921.96,210.76 919.65,210.183 C917.79,209.602 914.54,209.716 909.79,209.716 L909.79,199.162 L956.07,199.162 L956.07,209.716 C953.75,209.716 951.55,209.602 949.11,209.836 C948.53,209.836 945.51,209.95 944.24,211.341 C943.31,212.383 943.08,214.474 943.08,217.721 C943.08,221.55 943.08,225.378 942.97,229.088 L942.97,262.725 C942.97,264.353 942.97,265.164 943.08,265.858 C943.89,270.152 948.42,269.688 949.57,269.688 L955.84,269.688 L955.84,280.244 L909.79,280.244 L909.79,269.574 C911.99,269.574 914.19,269.688 916.51,269.574 C918.49,269.574 919.53,269.341 920.23,268.994 C922.08,267.95 922.66,265.628 922.55,261.22 L922.55,217.258" id="Fill-16"></path>
                <path d="M973.82,249.733 C974.98,255.305 975.79,259.365 979.85,263.309 C987.04,270.502 997.02,271.196 1000.27,271.196 C1004.33,271.079 1009.43,270.152 1012.57,267.486 C1015.23,265.051 1015.58,262.148 1015.58,260.873 C1015.58,260.293 1015.47,258.782 1014.77,257.277 C1012.68,253.1 1008.5,252.056 1000.04,250.2 C994.47,248.922 988.79,247.765 983.1,246.374 C980.67,245.793 971.39,243.705 966.17,236.396 C962.57,231.525 962.46,225.262 962.46,223.288 C962.46,218.534 963.5,214.36 965.93,210.413 C970.58,202.409 977.88,199.045 986.58,197.769 C988.09,197.538 991.68,197.075 995.86,197.075 C1005.84,197.075 1010.71,199.395 1019.18,204.149 L1021.38,198.466 L1030.77,198.466 L1030.77,227.929 L1019.64,227.929 C1019.29,226.189 1019.07,224.449 1018.59,222.824 C1017.9,220.507 1016.74,216.561 1011.98,212.851 C1009.32,210.76 1004.1,207.746 995.98,207.746 C994.93,207.746 988.79,207.746 984.72,210.183 C980.67,212.503 979.74,216.097 979.74,218.07 C979.74,218.998 979.85,220.389 981.36,222.361 C984.15,226.074 988.79,226.538 993.08,227.582 C995.52,228.046 997.95,228.626 1000.27,229.205 L1011.98,231.642 C1018.25,233.265 1023.7,234.773 1028.46,239.645 C1030.77,242.197 1034.02,246.721 1034.02,255.188 C1034.02,267.369 1028.22,273.284 1024.51,276.184 C1018.13,280.938 1010.36,282.566 1002.7,282.566 C1000.73,282.566 993.89,282.446 987.75,280.821 C983.68,279.667 981.13,278.506 974.52,273.865 L971.85,280.361 L962.11,280.361 L962.11,249.624 L973.82,249.733" id="Fill-17"></path>
                <path d="M1115.69,199.395 L1116.16,230.945 L1104.9,230.945 C1104.9,228.973 1105.02,227.118 1104.9,225.262 C1104.33,215.865 1100.96,211.923 1096.78,210.413 C1094.58,209.602 1092.15,209.602 1087.27,209.602 L1087.27,263.543 C1087.27,266.559 1087.15,269.922 1093.53,269.922 L1096.32,269.922 C1098.18,269.805 1099.92,269.922 1101.77,269.922 L1101.77,280.478 L1052.59,280.478 L1052.59,269.922 C1055.38,269.805 1058.15,269.805 1060.82,269.805 C1062.56,269.805 1064.65,269.688 1065.7,268.414 C1067.08,266.785 1066.97,264.12 1066.97,262.031 L1066.86,209.602 C1062.33,209.369 1058.15,209.369 1054.33,212.27 C1050.15,215.518 1049.22,220.738 1049.22,231.062 L1037.97,231.062 L1038.44,199.395 L1115.69,199.395" id="Fill-18"></path>
                <path d="M1133.56,249.733 C1134.71,255.305 1135.53,259.365 1139.59,263.309 C1146.78,270.502 1156.76,271.196 1160,271.196 C1164.06,271.079 1169.17,270.152 1172.3,267.486 C1174.97,265.051 1175.32,262.148 1175.32,260.873 C1175.32,260.293 1175.21,258.782 1174.51,257.277 C1172.42,253.1 1168.24,252.056 1159.78,250.2 C1154.2,248.922 1148.52,247.765 1142.84,246.374 C1140.41,245.793 1131.13,243.705 1125.9,236.396 C1122.31,231.525 1122.2,225.262 1122.2,223.288 C1122.2,218.534 1123.24,214.36 1125.67,210.413 C1130.32,202.409 1137.62,199.045 1146.32,197.769 C1147.83,197.538 1151.42,197.075 1155.6,197.075 C1165.57,197.075 1170.45,199.395 1178.91,204.149 L1181.12,198.466 L1190.51,198.466 L1190.51,227.929 L1179.38,227.929 C1179.03,226.189 1178.8,224.449 1178.33,222.824 C1177.64,220.507 1176.48,216.561 1171.72,212.851 C1169.05,210.76 1163.84,207.746 1155.72,207.746 C1154.67,207.746 1148.52,207.746 1144.46,210.183 C1140.41,212.503 1139.47,216.097 1139.47,218.07 C1139.47,218.998 1139.59,220.389 1141.1,222.361 C1143.88,226.074 1148.52,226.538 1152.82,227.582 C1155.25,228.046 1157.69,228.626 1160,229.205 L1171.72,231.642 C1177.98,233.265 1183.44,234.773 1188.19,239.645 C1190.51,242.197 1193.76,246.721 1193.76,255.188 C1193.76,267.369 1187.96,273.284 1184.25,276.184 C1177.87,280.938 1170.1,282.566 1162.44,282.566 C1160.47,282.566 1153.63,282.446 1147.48,280.821 C1143.42,279.667 1140.87,278.506 1134.25,273.865 L1131.59,280.361 L1121.85,280.361 L1121.85,249.624 L1133.56,249.733" id="Fill-19"></path>
                <polygon id="Fill-20" points="582.315 280.594 584.315 280.594 584.315 0.773 582.315 0.773"></polygon>
            </g>
        </g>
    </g>
</svg>